<svg xmlns="http://www.w3.org/2000/svg" width="1000" height="1000">
  <g fill="#2f91ff">
    <path d="M172.03 213.9q-1.77-2.57-4.06-4.69c-5.02-4.65-9.56-9.84-14.06-14.97-3.77-4.3 1.67-7.83 5.44-8.9q37.09-10.57 67.97-19.51c2.37-.69 6.92-1.85 8.64-1.99q3.46-.27 5.41 4.35-1.34 4.87-1.84 6.87-7.4 29.98-18.69 73.64-.38 1.49-1.57 2.55-3.95 3.55-7.76-.2-8.53-8.36-17.05-16.97-1.69-1.72-3.91-1.19-34.7 40.76-54.05 83.77-13.01 28.94-21 61.77-12.66 52.07-7.67 107.48 5.07 56.24 28.43 105.55c19.04 40.19 43.62 75.74 75.13 105.26q13.93 13.05 26.9 23.29 10.06 7.94 4.39 18.56c-1.62 2.65-7.79 4.98-11.18 5.58q-4.93-1.07-7.73-3.18c-27.07-20.36-51.26-45.91-71.58-73.04q-20.59-30.9-21.83-33.08-33.39-57.63-43.93-120.92-2.4-14.46-4.16-36.23-1.58-19.5-.81-36.43 1.48-32.63 8.7-65.35.97-4.42 7.36-25.66 10.29-34.21 25.92-63.09c10.99-20.31 23.94-40.73 38.92-59.52l9.67-13.75zm624.51 475.05a1.48 1.46-59.9 0 0 1.54-.42c25.97-28.99 47.47-60.74 64.04-95.48q6.23-13.07 9.46-20.93 4.87-11.83 10.41-31.22 9.7-38.81 11.47-64.13 1.3-18.57 1.23-28.24-.13-19.01-3.16-42.31-4.86-37.44-18.26-72.48c-5.02-13.11-12.1-29.28-19.98-43.44-11.26-20.25-22.83-38.71-36.73-55.62q-4.38-5.32-12.94-15.33c-7.35-8.59-14.22-14.56-22.93-22.96q-3.97-3.83-5.55-5.83c-3.62-4.57-3.36-12.88 1.33-16.56q5.78-4.53 13.51-2.74 7.02 4.44 9.52 7 23.11 23.67 39.09 43.63 11.89 14.87 23.34 32.96c14.1 22.3 26.3 45.87 34.77 70.65 5.74 16.81 10.91 31.94 14.39 48.42a359.34 359.34 0 0 1 7.8 64.99q-.6 39.59-3.47 61.3c-2.89 21.92-7.68 43.55-15.15 64.82q-8.42 24-18.89 44.9-4.37 8.71-13.38 25.08-6.17 11.21-15.22 24.02-10.01 14.16-18.46 25.18c-5.76 7.51-13.86 16.54-18.42 22.09a2.04 2.04 0 0 0 .07 2.68l17.17 18.81a2.37 2.26-80.5 0 1 .38.56c2.07 4.26-1.52 6.67-5.07 8.35q-1.17.56-13.5 4.21-41.46 12.29-55.64 16.14-4.68 1.27-10.38.72-1.38-6.03-.58-9.09 16.02-61.5 19.06-73.75c.72-2.9 2.14-3.63 4.08-5.55a1.95 1.94-49.2 0 1 2.51-.19q2.22 1.64 3.81 3.24 3.83 3.85 16.23 15.01 1.23 1.1 2.5 1.51z"/>
    <path d="M459.36 191.83q23.21-1.97 28.99-1.8c9.05-.78 14.17-.49 29.94.62 36.43 1.17 96.92 24.1 102.85 27.34q21.96 12.03 32.71 20.14 43.61 32.91 69.81 75.45c43.99 68.7 50.6 154.72 18.96 228.98-36.62 72.8-95.19 127.46-141.09 146.6q-23.79 9.92-50.33 15.28-36.54 4.56-39.1 4.54a2.52 2.52 0 0 0-2.53 2.52v62.28a1.2 1.18 22.8 0 0 .35.84q1.63 1.61 2.91 1.61 27.39.02 67.25.01 2.24 0 5.55 1.44 5.49 2.4 5.73 8.57.18 4.79 1.04 8.8a1.52 1.5-5.9 0 0 1.48 1.19q93.7-.03 108.94.03 8.93.03 11.9 8.07c1.7 6.84-1.93 14.64-9.65 14.92q-15.66-.04-107.5-.02-3.8 0-5.46 2.3a2.04 2.01-22.3 0 0-.38.89c-.62 3.63-1.03 8.06-2.6 10.68q-3.4 5.66-9.09 7.97-2.84 1.15-12.05 1.15-132.72.05-147.67-.03c-10.92-.06-13.17-10.54-12.8-19.38a3.06 3.05-79.7 0 0-2.1-3.04l-116.01-.68c-4.97.66-8.19-9.44-6.66-13.78q1.87-5.52 7.11-8.03 43.32-.99 114.48-1.06 2.78 0 3.2-1.5a1.02.56-55.3 0 0 .02-.19l.05-9.51a1.08.94-40.9 0 1 .04-.28c2.05-7.07 7.23-8.55 13.92-8.54q31.68.05 62.94.02a3.03 3.03 0 0 0 3.03-3.03q0-60.83-.27-61.79-.79-2.75-5.14-2.94-26.09-1.14-52.53-8.46c-49.5-13.71-94.27-41.23-127.65-80.33-38.73-45.38-60.43-120.2-62.78-180.18q.22-40.31 6.23-61.23a263.65 263.65 0 0 1 54.98-100.72c29.45-33.44 67.28-59.4 109.89-73.38q24.69-8.1 49-11.55zm-57.42 132.3c28.46 6.76 49.17 9.52 83.88 8.28a1.91 1.91 0 0 0 1.83-1.91l.03-117.3q0-2.45-2.27-2.13-3.46.49-12.61 5.06a113.9 113.9 0 0 0-36.76 29.42q-14.95 18.17-23.4 36.13-7.32 15.54-9.95 24.04c-3.49 16.34-4.87 15.88-.75 18.41zm193.9-.02q2-.35 3.58-1.68c-3.52-22.27-18.77-53.94-35.55-74.44-13.39-16.37-31.43-29.44-51.67-36.08a1.23 1.23 0 0 0-1.39.45q-1.2 1.71-1.19 4.35.07 42.72.02 111.96l1.13 3.31c31.45.24 59.26-3.31 85.07-7.87zM428.21 221.4a1.27 1.27 0 0 0-1.5-1.79c-38.31 11.36-73.39 33.99-101.19 63.19-5.55 5.83-9.17 9.5-12.33 13.48a1.18 1.17 55.9 0 0-.2 1.07c.97 3.1 5.74 4.35 8.62 5.4q25.27 9.23 50.62 15.42 1.76.42 3.56-1.36 4.73-14.3 10.84-30.21 3.21-8.37 7.19-15.54 5.28-9.53 8.52-14.92 10.21-16.98 23.68-31.04l2.19-3.7zm196.51 96.57q29.24-6.82 58.07-19.27c2.07-.89 1.1-3.25-.03-4.57q-25.67-29.78-58.94-50.29-20.5-12.65-41.01-19.99-5.8-2.07-10.26-3.22a1.55 1.55 0 0 0-1.91 1.25q-.24 1.55.62 2.48c23.32 31.7 36.64 54.66 53.46 93.61zm31.83 143.38c-23.2-1.68-24.1-2.35-24.51.18-.52 11.77 1.37 16.25 2.47 18.57q7.31 15.47 23.43 19.55c16.12 3.36 26.21 3.16 36.04 1.38q28.08-7.52 33.49-28.51c2.39-9.24.96-22.09-5.38-29.1-7.55-9.43-43.11-20.06-58.36-23.49q-4.78-1.86-5.16-6.98c-.44-6.02 3.5-8.94 8.4-11.08q1.7-.74 6.57-1.28 9.83-1.1 17.65 2.14c12.04 4.2 9.5 13.7 12.38 13.52 7.89 0 14.11.07 20.33.03 1.23-17.59-24.35-33.55-38.5-36.38q-25.32-1.69-36.64 4.85-18.55 10.72-17.15 32.97.82 12.9 11.01 20.26c44.66 15.7 48.21 16.69 53.77 18.49 5.2 2.92 6.39 9.13 4.19 12.95-1.97 3.25-6.7 6.97-9.3 8.16-13.18 4.99-34.65 1.28-34.73-16.23zm-382.9 37.47q9 2.05 11.73 2.11 21.79.47 42.24-.8c22.33-1.39 40.85-15.26 46.51-37.18q5.61-24.15.23-45c-4.67-18.09-17.81-31.67-36.31-35.62q-8.7-1.85-21.89-1.88l-40.2.09a1.91 1.91 0 0 0-2.31 1.87v116.41zm141.09 2.48q18.34-.27 28.67-.85c14.91-2.03 16.3-3.43 18.22-3.5 16.95-5.75 28.62-19.04 32.92-35.33 2.07-7.82 3.42-17.41 2.55-25.88q-.77-11.46-2.82-19.17c-5.36-20.16-22.9-34.78-43.87-35.61-18.81-.77-37.03-.24-56.74 1.29v116.59a.29.23 38 0 0 .03.12 2.23 2.19-33.7 0 0 .87 1.93l20.17.41zm170.88-3.08q1.36 2.26 3.3 2.46 22.78.25 24.38-1.17l.36-117.15a.88.88 0 0 0-.71-.86c-8.36-1.66-15.01-.98-23.58.08a1.94 1.93-3.5 0 0-1.7 1.92v71.34a.41.4 29.3 0 1-.75.21l-44.57-72.96a1.28 1.28 0 0 0-.9-.6q-13.41-2.22-27.2-.01a.7.7 0 0 0-.58.69v116.97l25.58.32.41-75.02 45.96 73.78zm-187.43 64.97a2.42 2.4 71.8 0 0-1.42 2.83c7.07 27.76 18.51 54.25 35.24 76.77q17.88 24.05 43.22 38.57 5.35 3.06 9.69 4.04 2.02.46 2.68-1.48l.06-125.21c0-2.94.51-5.11-2.9-5.14l-86.57 9.62zm111.46-8.05.01 128.07a1.38 1.29-62.5 0 0 .2.71q.5.93 2.47 1.32a1.39 1.37 38.4 0 0 .81-.09q5.36-2.35 10.13-5.35c7.01-4.4 13.91-8.82 19.77-14.03q14.27-12.69 25.04-28.4 22.28-32.52 31.03-71.04-.41-2.15-1.54-2.19c-16.16-5.28-84.01-14.3-87.22-9.95a1 .99-8.8 0 0-.7.95zm62.69 122.48q33.09-9.99 61.22-29.77 32.38-22.75 56.19-54.37a1.78 1.78 0 0 0-.71-2.7q-29.91-12.96-62.15-21.89-5.16-1.42-6.74 3.61c-2.62 8.33-4.83 16.34-7.34 23.34q-11.45 31.92-32.28 59.97c-5.55 7.48-11.74 14.29-17.48 20.78q-1.31 1.49-.41 2.88a.79.77 67.6 0 0 .8.34l8.9-2.19zm-152.78-16.57q-29.63-38.77-42.81-85.92c-.86-3.11-2.29-7.57-6.54-6.37q-30.82 8.66-60.17 22.3a1.43 1.43 0 0 0-.61 2.06q2.27 3.56 5.53 7.55 17.18 21.02 40.1 39.13 30.67 24.24 69.61 36.9 2.21.71 5.6 1.51 2.25-.52 2.88-1.63l-13.59-15.53z"/>
    <path d="M304.64 472.14a.64.63-90 0 1-.63-.64l-.01-73.04a.42.41-.7 0 1 .41-.41q8.77-.21 19.59-.22c6.17-.01 14.37 2.36 18.9 6.62q5.49 5.18 7.15 13.04 1.84 8.72 2.03 17.25c.28 12.58-2.36 30.91-18.24 35.44-7.33 2.25-19.47 3.21-29.2 1.96zm118.95-.87c.12-.46.38-.9.39-1.49q.03-7.17.02-71.11a.66.66 0 0 1 .65-.66l22.39-.24a2.43 2.15 48.6 0 1 .56.07q6.16 1.59 6.75 1.81c4.88 1.86 9.2 4.26 11.77 8.77 5.87 10.3 6.5 23.82 4.98 35.58q-1.25 9.77-5.8 17.58c-3.66 6.27-10.65 9.11-18.05 9.9q-10.29 1.09-23.06.59a.65.64-82 0 1-.6-.8z"/>
  </g>
</svg>
